<svg width="1454" height="1454" viewBox="0 0 1454 1454" fill="none" xmlns="http://www.w3.org/2000/svg">
<path opacity="0.28" d="M700.709 1334.65C1050.76 1334.65 1334.53 1050.88 1334.53 700.828C1334.53 350.776 1050.76 67.0032 700.709 67.0032C350.657 67.0032 66.884 350.776 66.884 700.828C66.884 1050.88 350.657 1334.65 700.709 1334.65Z" fill="#12A50F"/>
<path d="M1194.47 1116.07L989.93 1085.54C983.407 1084.56 978.908 1078.48 979.883 1071.96L1022.42 787.009C1023.39 780.487 1029.47 775.988 1036 776.962L1240.54 807.496C1247.06 808.471 1251.56 814.548 1250.58 821.071L1208.04 1106.02C1207.07 1112.55 1200.99 1117.04 1194.47 1116.07Z" fill="#2B468B"/>
<path d="M1231.81 822.55L1039.9 793.909L998.647 1070.31L1190.56 1098.95L1231.81 822.55Z" fill="white"/>
<path opacity="0.55" d="M1190.77 1097.57L1190.55 1099.04L998.645 1070.39L1039.91 793.989L1113.84 805.024C1088.6 830.624 1070.94 864.176 1065.23 902.451C1052.03 990.875 1107.05 1073.7 1190.77 1097.57Z" fill="#F0F5FF"/>
<path opacity="0.22" d="M1093.5 875.869L1197.81 891.442C1199.45 891.686 1200.98 890.555 1201.22 888.912C1201.47 887.271 1200.34 885.739 1198.69 885.495L1094.38 869.922C1092.74 869.678 1091.21 870.809 1090.97 872.452C1090.72 874.092 1091.85 875.622 1093.5 875.869Z" fill="#6C7AFF"/>
<path opacity="0.22" d="M1091.11 891.846L1195.42 907.418C1197.06 907.662 1198.59 906.531 1198.84 904.888C1199.08 903.248 1197.95 901.716 1196.31 901.471L1092 885.899C1090.35 885.655 1088.82 886.786 1088.58 888.429C1088.34 890.069 1089.47 891.599 1091.11 891.846Z" fill="#6C7AFF"/>
<path d="M1075.91 878.37C1074.79 885.908 1067.77 891.104 1060.23 889.979C1052.69 888.853 1047.5 881.834 1048.62 874.296C1049.75 866.758 1056.77 861.562 1064.3 862.687C1071.84 863.813 1077.04 870.833 1075.91 878.37Z" fill="#6C7AFF"/>
<path d="M1055.57 875.334L1059.37 880.467L1069.64 872.865" stroke="white" stroke-width="1.253" stroke-miterlimit="10" stroke-linecap="round" stroke-linejoin="round"/>
<path opacity="0.22" d="M1085.93 926.567L1190.24 942.14C1191.88 942.384 1193.41 941.253 1193.65 939.61C1193.9 937.967 1192.77 936.437 1191.12 936.193L1086.81 920.62C1085.17 920.376 1083.64 921.507 1083.4 923.15C1083.15 924.793 1084.29 926.323 1085.93 926.567Z" fill="#6C7AFF"/>
<path opacity="0.22" d="M1083.54 942.544L1187.85 958.116C1189.49 958.36 1191.02 957.229 1191.27 955.586C1191.51 953.943 1190.38 952.414 1188.74 952.169L1084.43 936.597C1082.79 936.353 1081.26 937.484 1081.01 939.127C1080.77 940.767 1081.9 942.3 1083.54 942.544Z" fill="#6C7AFF"/>
<path d="M1068.34 929.068C1067.22 936.603 1060.2 941.802 1052.66 940.677C1045.12 939.552 1039.93 932.532 1041.05 924.994C1042.18 917.459 1049.2 912.26 1056.74 913.385C1064.27 914.514 1069.47 921.534 1068.34 929.068Z" fill="#6C7AFF"/>
<path d="M1048 926.032L1051.8 931.165L1062.07 923.566" stroke="white" stroke-width="1.253" stroke-miterlimit="10" stroke-linecap="round" stroke-linejoin="round"/>
<path opacity="0.22" d="M1078.36 977.265L1182.67 992.838C1184.31 993.082 1185.84 991.951 1186.09 990.308C1186.33 988.665 1185.2 987.135 1183.56 986.891L1079.25 971.318C1077.6 971.074 1076.07 972.205 1075.83 973.848C1075.58 975.491 1076.72 977.021 1078.36 977.265Z" fill="#6C7AFF"/>
<path opacity="0.22" d="M1075.97 993.245L1180.28 1008.82C1181.93 1009.06 1183.46 1007.93 1183.7 1006.29C1183.95 1004.64 1182.81 1003.11 1181.17 1002.87L1076.86 987.298C1075.22 987.054 1073.69 988.185 1073.44 989.828C1073.2 991.468 1074.33 992.998 1075.97 993.245Z" fill="#6C7AFF"/>
<path d="M1060.77 979.769C1059.65 987.304 1052.63 992.503 1045.09 991.378C1037.55 990.253 1032.36 983.233 1033.48 975.695C1034.61 968.158 1041.63 962.961 1049.17 964.086C1056.7 965.212 1061.9 972.235 1060.77 979.769Z" fill="#6C7AFF"/>
<path d="M1040.43 976.733L1044.23 981.866L1054.5 974.264" stroke="white" stroke-width="1.253" stroke-miterlimit="10" stroke-linecap="round" stroke-linejoin="round"/>
<path opacity="0.22" d="M1070.79 1027.97L1175.1 1043.54C1176.74 1043.78 1178.27 1042.65 1178.52 1041.01C1178.76 1039.37 1177.63 1037.84 1175.99 1037.59L1071.68 1022.02C1070.03 1021.78 1068.5 1022.91 1068.26 1024.55C1068.02 1026.19 1069.15 1027.72 1070.79 1027.97Z" fill="#6C7AFF"/>
<path opacity="0.22" d="M1068.41 1043.94L1172.71 1059.52C1174.36 1059.76 1175.89 1058.63 1176.13 1056.99C1176.38 1055.34 1175.24 1053.81 1173.6 1053.57L1069.29 1038C1067.65 1037.75 1066.12 1038.88 1065.88 1040.53C1065.63 1042.17 1066.76 1043.7 1068.41 1043.94Z" fill="#6C7AFF"/>
<path d="M1053.21 1030.47C1052.08 1038 1045.06 1043.2 1037.52 1042.08C1029.99 1040.95 1024.79 1033.93 1025.92 1026.4C1027.04 1018.86 1034.06 1013.66 1041.6 1014.79C1049.13 1015.91 1054.33 1022.93 1053.21 1030.47Z" fill="#6C7AFF"/>
<path d="M1032.86 1027.43L1036.66 1032.56L1046.93 1024.97" stroke="white" stroke-width="1.253" stroke-miterlimit="10" stroke-linecap="round" stroke-linejoin="round"/>
<path opacity="0.22" d="M1188.04 859.323L1071.06 841.86C1068.77 841.52 1067.2 839.388 1067.54 837.1L1067.63 836.489C1067.97 834.201 1070.1 832.624 1072.39 832.965L1189.37 850.427C1191.66 850.767 1193.24 852.899 1192.9 855.188L1192.81 855.801C1192.46 858.087 1190.33 859.666 1188.04 859.323Z" fill="#6C7AFF"/>
<path d="M1183.5 815.424L1087.98 801.166L1089.81 788.923C1091.26 779.234 1100.29 772.551 1109.97 773.999L1170.4 783.02C1180.09 784.465 1186.78 793.494 1185.33 803.181L1183.5 815.424Z" fill="#FFB448"/>
<path d="M564.798 1292.8L913.743 1273.42C921.662 1272.98 927.725 1266.21 927.286 1258.29L916.724 1068.12C916.285 1060.2 909.509 1054.14 901.591 1054.58L552.645 1073.96C544.727 1074.4 538.663 1081.17 539.103 1089.09L549.664 1279.26C550.104 1287.18 556.879 1293.24 564.798 1292.8Z" fill="white"/>
<path d="M540.792 1119.54L918.413 1098.57L916.724 1068.12C916.285 1060.2 909.509 1054.14 901.591 1054.58L552.645 1073.96C544.727 1074.4 538.663 1081.17 539.103 1089.09L540.792 1119.54Z" fill="#6C7AFF"/>
<path d="M635.42 1085.87L635.044 1079.09L639.134 1078.86L639.174 1079.59L635.905 1079.77L636.032 1082.06L639.09 1081.89L639.13 1082.62L636.072 1082.79L636.2 1085.09L639.523 1084.91L639.563 1085.64L635.42 1085.87ZM640.989 1085.56L640.613 1078.78L644.677 1078.56L644.717 1079.28L641.474 1079.46L641.601 1081.75L644.54 1081.59L644.58 1082.32L641.642 1082.48L641.81 1085.51L640.989 1085.56ZM646.459 1085.26L646.083 1078.48L650.146 1078.25L650.187 1078.98L646.944 1079.16L647.071 1081.45L650.009 1081.29L650.05 1082.02L647.111 1082.18L647.279 1085.21L646.459 1085.26ZM652.373 1078.13L652.749 1084.91L651.928 1084.95L651.552 1078.17L652.373 1078.13ZM659.59 1079.85L658.769 1079.9C658.707 1079.66 658.611 1079.46 658.48 1079.29C658.351 1079.12 658.197 1078.98 658.018 1078.86C657.841 1078.75 657.647 1078.67 657.436 1078.62C657.226 1078.57 657.008 1078.55 656.783 1078.56C656.372 1078.58 656.006 1078.71 655.685 1078.93C655.365 1079.16 655.119 1079.48 654.945 1079.89C654.773 1080.31 654.703 1080.81 654.736 1081.4C654.768 1081.98 654.893 1082.47 655.11 1082.87C655.328 1083.26 655.609 1083.55 655.951 1083.74C656.296 1083.93 656.673 1084.01 657.084 1083.99C657.309 1083.98 657.523 1083.93 657.727 1083.86C657.931 1083.79 658.115 1083.68 658.278 1083.55C658.443 1083.42 658.58 1083.26 658.69 1083.08C658.801 1082.89 658.874 1082.68 658.91 1082.44L659.731 1082.39C659.688 1082.74 659.593 1083.06 659.445 1083.34C659.297 1083.63 659.107 1083.87 658.875 1084.07C658.642 1084.28 658.378 1084.44 658.081 1084.55C657.787 1084.67 657.468 1084.74 657.126 1084.76C656.548 1084.79 656.027 1084.68 655.561 1084.42C655.095 1084.16 654.719 1083.78 654.432 1083.27C654.145 1082.77 653.981 1082.16 653.942 1081.44C653.902 1080.73 653.997 1080.1 654.226 1079.57C654.455 1079.03 654.787 1078.61 655.221 1078.3C655.656 1078 656.162 1077.83 656.74 1077.79C657.082 1077.77 657.406 1077.81 657.711 1077.89C658.019 1077.97 658.3 1078.1 658.553 1078.28C658.806 1078.46 659.022 1078.68 659.2 1078.94C659.379 1079.2 659.508 1079.51 659.59 1079.85ZM661.619 1077.62L661.995 1084.39L661.174 1084.44L660.798 1077.66L661.619 1077.62ZM663.641 1084.3L663.265 1077.52L667.355 1077.3L667.395 1078.03L664.126 1078.21L664.253 1080.5L667.311 1080.33L667.351 1081.06L664.293 1081.22L664.421 1083.53L667.743 1083.34L667.784 1084.07L663.641 1084.3ZM674.208 1076.92L674.584 1083.69L673.79 1083.74L669.802 1078.62L669.736 1078.63L670.031 1083.95L669.21 1083.99L668.834 1077.22L669.628 1077.17L673.631 1082.3L673.697 1082.3L673.401 1076.96L674.208 1076.92ZM681.422 1078.64L680.601 1078.69C680.54 1078.45 680.443 1078.25 680.312 1078.08C680.183 1077.91 680.029 1077.76 679.85 1077.65C679.673 1077.54 679.48 1077.46 679.269 1077.41C679.058 1077.36 678.84 1077.34 678.615 1077.35C678.205 1077.37 677.839 1077.5 677.517 1077.72C677.198 1077.95 676.951 1078.27 676.777 1078.68C676.605 1079.1 676.536 1079.6 676.568 1080.19C676.601 1080.77 676.725 1081.26 676.942 1081.66C677.161 1082.05 677.441 1082.34 677.784 1082.53C678.128 1082.72 678.506 1082.8 678.916 1082.78C679.141 1082.76 679.356 1082.72 679.56 1082.65C679.764 1082.58 679.947 1082.47 680.11 1082.34C680.275 1082.21 680.413 1082.05 680.522 1081.86C680.633 1081.68 680.707 1081.46 680.742 1081.23L681.563 1081.18C681.52 1081.53 681.425 1081.85 681.277 1082.13C681.129 1082.41 680.939 1082.66 680.707 1082.86C680.475 1083.07 680.21 1083.23 679.913 1083.34C679.619 1083.46 679.301 1083.53 678.959 1083.54C678.381 1083.58 677.859 1083.46 677.393 1083.21C676.927 1082.95 676.551 1082.57 676.264 1082.06C675.977 1081.55 675.814 1080.94 675.774 1080.23C675.734 1079.51 675.829 1078.89 676.058 1078.35C676.288 1077.82 676.619 1077.4 677.054 1077.09C677.488 1076.78 677.994 1076.61 678.572 1076.58C678.914 1076.56 679.238 1076.59 679.544 1076.68C679.851 1076.76 680.132 1076.89 680.385 1077.07C680.639 1077.25 680.854 1077.47 681.033 1077.73C681.211 1077.99 681.341 1078.3 681.422 1078.64ZM682.048 1076.48L682.988 1076.43L685.043 1079.49L685.123 1079.48L686.827 1076.22L687.767 1076.16L685.539 1080.29L685.694 1083.08L684.873 1083.12L684.718 1080.33L682.048 1076.48Z" fill="white"/>
<path opacity="0.22" d="M578.506 1159.47L732.601 1150.92C735.026 1150.78 736.884 1148.71 736.751 1146.28C736.617 1143.86 734.54 1142 732.115 1142.13L578.02 1150.69C575.595 1150.82 573.737 1152.9 573.873 1155.33C574.01 1157.75 576.081 1159.61 578.506 1159.47Z" fill="#6C7AFF"/>
<path opacity="0.22" d="M581.129 1206.68L735.224 1198.12C737.649 1197.99 739.507 1195.91 739.374 1193.48C739.24 1191.06 737.163 1189.2 734.738 1189.33L580.643 1197.89C578.218 1198.03 576.36 1200.1 576.494 1202.53C576.627 1204.95 578.704 1206.81 581.129 1206.68Z" fill="#6C7AFF"/>
<path opacity="0.22" d="M579.817 1183.08L733.912 1174.52C736.338 1174.38 738.196 1172.31 738.062 1169.88C737.928 1167.45 735.852 1165.6 733.427 1165.73L579.332 1174.29C576.907 1174.42 575.048 1176.5 575.185 1178.93C575.316 1181.35 577.392 1183.21 579.817 1183.08Z" fill="#6C7AFF"/>
<path opacity="0.22" d="M582.438 1230.28L736.532 1221.72C738.958 1221.59 740.816 1219.51 740.682 1217.09C740.548 1214.66 738.472 1212.8 736.047 1212.94L581.952 1221.49C579.527 1221.63 577.668 1223.7 577.802 1226.13C577.936 1228.55 580.012 1230.41 582.438 1230.28Z" fill="#6C7AFF"/>
<path opacity="0.22" d="M583.749 1253.88L737.844 1245.32C740.269 1245.19 742.127 1243.11 741.994 1240.69C741.86 1238.26 739.784 1236.4 737.358 1236.54L583.263 1245.09C580.838 1245.23 578.98 1247.31 579.117 1249.73C579.247 1252.16 581.324 1254.01 583.749 1253.88Z" fill="#6C7AFF"/>
<path opacity="0.22" d="M884.404 1237.23L775.186 1243.3C769.338 1243.62 764.333 1239.14 764.007 1233.29L759.453 1151.28C759.128 1145.43 763.606 1140.43 769.454 1140.1L878.673 1134.04C884.521 1133.71 889.525 1138.19 889.851 1144.04L894.405 1226.05C894.731 1231.9 890.252 1236.9 884.404 1237.23Z" fill="#6C7AFF"/>
<path opacity="0.5" d="M771.937 1155.29L877.887 1149.4" stroke="white" stroke-width="0.7407" stroke-miterlimit="10" stroke-linecap="round"/>
<path opacity="0.5" d="M772.743 1169.82L878.693 1163.93" stroke="white" stroke-width="0.7407" stroke-miterlimit="10" stroke-linecap="round"/>
<path opacity="0.5" d="M773.551 1184.34L879.501 1178.46" stroke="white" stroke-width="0.7407" stroke-miterlimit="10" stroke-linecap="round"/>
<path opacity="0.5" d="M774.357 1198.87L880.307 1192.99" stroke="white" stroke-width="0.7407" stroke-miterlimit="10" stroke-linecap="round"/>
<path opacity="0.5" d="M775.165 1213.4L881.115 1207.52" stroke="white" stroke-width="0.7407" stroke-miterlimit="10" stroke-linecap="round"/>
<path opacity="0.5" d="M775.971 1227.93L881.921 1222.05" stroke="white" stroke-width="0.7407" stroke-miterlimit="10" stroke-linecap="round"/>
<path d="M778.364 1226.13C777.756 1226.16 777.131 1226 776.587 1225.63C775.276 1224.74 774.938 1222.95 775.834 1221.64L792.575 1197.1C793.07 1196.38 793.869 1195.92 794.748 1195.86C795.565 1195.78 796.481 1196.14 797.071 1196.79L807.892 1208.67L827.274 1176.56C827.73 1175.81 828.507 1175.3 829.382 1175.2C830.254 1175.1 831.133 1175.39 831.758 1176.01L843.538 1187.73L868.387 1151.28C869.28 1149.97 871.065 1149.63 872.377 1150.53C873.688 1151.42 874.026 1153.21 873.13 1154.52L846.333 1193.83C845.853 1194.53 845.082 1194.99 844.233 1195.07C843.34 1195.17 842.538 1194.85 841.933 1194.25L830.295 1182.66L810.814 1214.94C810.346 1215.71 809.541 1216.22 808.636 1216.31C807.682 1216.41 806.839 1216.05 806.231 1215.38L795.265 1203.34L780.571 1224.88C780.056 1225.65 779.225 1226.08 778.364 1226.13Z" fill="#6C7AFF"/>
<path d="M874.846 1162.56C873.432 1162.64 872.144 1161.66 871.868 1160.23L870.492 1153.1L863.356 1154.48C861.76 1154.78 860.291 1153.75 859.992 1152.2C859.692 1150.64 860.71 1149.13 862.269 1148.83L872.226 1146.92C873.813 1146.6 875.294 1147.64 875.587 1149.2L877.504 1159.15C877.803 1160.71 876.785 1162.21 875.227 1162.51C875.102 1162.53 874.974 1162.55 874.846 1162.56Z" fill="#6C7AFF"/>
<g opacity="0.74">
<path d="M648.807 548.952C582.946 489.949 526.508 410.764 489.89 325.87C496.041 323.178 502.188 320.482 508.339 317.789C543.348 400.347 610.439 467.766 679.614 506.87" fill="white"/>
</g>
<path d="M462.099 340.158L402.328 221.593L400.452 253.889C400.065 261.941 399.004 269.883 397.271 277.717C396.212 282.591 394.869 287.438 393.272 292.205C386.2 313.308 386.965 336.214 395.398 356.771L401.211 370.898L401.336 371.215L462.099 340.158Z" fill="#2B468B"/>
<path d="M391.914 209.266L401.636 228.551L400.452 253.886C400.065 261.938 399.004 269.88 397.271 277.714L368.67 220.982C365.443 214.581 368.031 206.73 374.434 203.502C377.65 201.882 381.227 201.731 384.368 202.766C387.546 203.816 390.294 206.049 391.914 209.266Z" fill="#6C7AFF"/>
<path d="M458.935 342.19C460.624 345.543 449.1 354.764 433.193 362.785C417.283 370.805 403.017 374.585 401.327 371.232C399.638 367.88 411.162 358.658 427.069 350.638C442.979 342.618 457.245 338.834 458.935 342.19Z" fill="#253F77"/>
<path d="M595.524 273.32L595.343 273.032L587.442 259.958C575.932 240.954 557.97 226.716 536.799 219.851C532.019 218.298 527.322 216.498 522.774 214.448C515.443 211.182 508.426 207.311 501.723 202.836L474.644 185.138L534.415 303.703L595.524 273.32Z" fill="#2B468B"/>
<path d="M470.93 169.429L480.652 188.715L501.723 202.83C508.426 207.308 515.44 211.179 522.774 214.442L494.174 157.71C490.946 151.309 483.094 148.721 476.694 151.946C473.481 153.566 471.233 156.352 470.197 159.492C469.148 162.679 469.311 166.215 470.93 169.429Z" fill="#6C7AFF"/>
<path d="M537.933 302.365C539.623 305.721 553.893 301.938 569.799 293.917C585.709 285.897 597.233 276.679 595.544 273.323C593.854 269.967 579.585 273.75 563.678 281.771C547.765 289.791 536.241 299.012 537.933 302.365Z" fill="#253F77"/>
<path d="M413.683 111.135L379.093 128.571L382.007 106.325C382.745 100.614 389.035 97.4412 394.095 100.23L413.683 111.135Z" fill="#FFB448"/>
<path d="M467.984 163.56L537.774 302.002L458.731 341.847L388.942 203.406C379.011 183.707 375.085 161.499 377.656 139.599L379.093 128.571L413.683 111.135L423.402 116.538C442.563 127.484 458.057 143.862 467.984 163.56Z" fill="white"/>
<path opacity="0.09" d="M435.528 240.529C453.279 275.739 483.609 300.376 518.319 311.799L458.725 341.841L388.942 203.409C379.005 183.701 375.083 161.513 377.653 139.604L379.099 128.583L413.686 111.147L423.405 116.538C426.103 118.076 428.721 119.719 431.262 121.467C415.815 158.532 416.036 201.865 435.528 240.529Z" fill="#6C7AFF"/>
<path d="M534.205 317.301L473.571 347.867C471.413 348.954 468.781 348.088 467.691 345.927L464.239 339.079L532.693 304.569L536.145 311.418C537.233 313.581 536.366 316.213 534.205 317.301Z" fill="#FFB448"/>
<path d="M531.082 318.865L531.83 320.348C534.793 326.228 533.138 333.196 528.212 337.159C527.485 337.767 526.648 338.293 525.766 338.735L495.82 353.831C494.942 354.273 494.02 354.634 493.098 354.857C486.98 356.46 480.393 353.648 477.43 347.768L476.682 346.285L531.082 318.865Z" fill="#2B468B"/>
<path opacity="0.39" d="M464.062 197.747C470.366 210.251 465.338 225.501 452.834 231.805C440.326 238.11 425.077 233.082 418.772 220.578C412.468 208.073 417.496 192.824 430.003 186.519C442.51 180.212 457.757 185.24 464.062 197.747Z" fill="#6C7AFF"/>
<path d="M528.212 337.159C527.485 337.767 526.648 338.293 525.766 338.735L495.82 353.831C494.942 354.273 494.02 354.633 493.098 354.857C492.069 351.723 498.6 345.537 508.022 340.788C517.447 336.04 526.302 334.469 528.212 337.159Z" fill="#253F77"/>
<path opacity="0.39" d="M494.851 266.483L457.37 285.377C454.759 286.694 451.575 285.644 450.257 283.033L448.201 278.956C446.884 276.344 447.934 273.16 450.545 271.843L488.026 252.949C490.638 251.632 493.822 252.682 495.139 255.293L497.195 259.37C498.513 261.982 497.463 265.166 494.851 266.483Z" fill="#6C7AFF"/>
<path d="M515.74 812.949L227.173 898.938C222.715 900.267 218.027 897.732 216.698 893.274L156.197 690.246L460.901 599.446L521.402 802.474C522.733 806.932 520.198 811.62 515.74 812.949Z" fill="white"/>
<path opacity="0.31" d="M382.376 852.692L227.173 898.941C222.721 900.267 218.03 897.732 216.704 893.279L156.203 690.254L241.329 664.888C239.994 685.628 242.236 706.949 248.515 728.021C267.876 792.994 320.584 838.935 382.376 852.692Z" fill="#F0F5FF"/>
<path d="M460.904 599.446L156.2 690.246L145.976 655.937C142.35 643.764 149.276 630.955 161.449 627.325L422.067 549.664C434.24 546.035 447.05 552.965 450.679 565.138L460.904 599.446Z" fill="#FFB448"/>
<path d="M189.727 635.767C187.2 634.401 184.292 634.101 181.538 634.918C175.853 636.614 172.604 642.619 174.3 648.304C175.12 651.058 176.966 653.326 179.493 654.693C181.087 655.556 182.835 655.992 184.597 655.992C185.629 655.992 186.667 655.841 187.685 655.539C190.439 654.719 192.707 652.875 194.077 650.345C195.444 647.818 195.746 644.907 194.926 642.153C194.097 639.405 192.254 637.134 189.727 635.767Z" fill="#F79C23"/>
<path d="M227.414 621.248C224.661 622.068 222.389 623.911 221.023 626.441C219.656 628.968 219.353 631.876 220.176 634.633C220.996 637.387 222.84 639.655 225.37 641.025C226.967 641.889 228.711 642.325 230.474 642.325C231.506 642.325 232.544 642.174 233.562 641.871C236.316 641.051 238.587 639.207 239.954 636.677C241.32 634.15 241.62 631.242 240.8 628.486C239.105 622.801 233.1 619.561 227.414 621.248Z" fill="#F79C23"/>
<path d="M327.359 594.753C324.832 593.383 321.921 593.087 319.168 593.904C316.414 594.724 314.143 596.567 312.776 599.097C311.409 601.624 311.109 604.533 311.93 607.289C312.75 610.043 314.593 612.314 317.123 613.681C318.72 614.545 320.465 614.981 322.227 614.981C323.259 614.981 324.297 614.83 325.315 614.527C328.069 613.707 330.337 611.861 331.707 609.334C333.074 606.807 333.373 603.896 332.553 601.142C331.733 598.391 329.889 596.123 327.359 594.753Z" fill="#F79C23"/>
<path d="M281.483 608.423C278.956 607.057 276.048 606.757 273.291 607.577C270.537 608.397 268.269 610.241 266.899 612.771C265.532 615.298 265.23 618.209 266.05 620.963C266.87 623.717 268.714 625.985 271.244 627.354C272.837 628.218 274.585 628.657 276.347 628.657C277.38 628.657 278.418 628.506 279.436 628.204C285.121 626.508 288.366 620.506 286.674 614.818C285.854 612.061 284.01 609.793 281.483 608.423Z" fill="#F79C23"/>
<path d="M373.239 581.082C370.709 579.716 367.804 579.419 365.047 580.233C362.293 581.053 360.025 582.897 358.655 585.427C357.286 587.957 356.986 590.862 357.806 593.619C358.626 596.373 360.47 598.641 363 600.011C364.593 600.874 366.341 601.31 368.103 601.31C369.136 601.31 370.174 601.159 371.192 600.857C376.877 599.161 380.122 593.159 378.43 587.474C377.61 584.72 375.766 582.449 373.239 581.082Z" fill="#F79C23"/>
<path d="M424.306 573.804C423.486 571.05 421.64 568.779 419.113 567.412C416.586 566.045 413.675 565.749 410.921 566.566C408.167 567.386 405.899 569.229 404.529 571.759C403.162 574.286 402.863 577.197 403.683 579.951C405.076 584.616 409.365 587.637 414 587.637C415.015 587.637 416.045 587.492 417.065 587.189C419.819 586.366 422.09 584.523 423.457 581.995C424.827 579.466 425.129 576.558 424.306 573.804Z" fill="#F79C23"/>
<path d="M184.126 649.839C181.445 649.839 178.97 648.091 178.164 645.393L169.891 617.633C168.911 614.338 170.784 610.875 174.076 609.892C177.373 608.906 180.834 610.785 181.817 614.077L190.09 641.836C191.07 645.131 189.197 648.594 185.906 649.577C185.312 649.755 184.713 649.839 184.126 649.839Z" fill="#2B468B"/>
<path d="M230.002 636.169C227.321 636.169 224.847 634.421 224.041 631.722L215.768 603.962C214.788 600.668 216.661 597.204 219.952 596.221C223.25 595.241 226.711 597.114 227.694 600.406L235.967 628.166C236.947 631.461 235.074 634.924 231.782 635.907C231.189 636.084 230.59 636.169 230.002 636.169Z" fill="#2B468B"/>
<path d="M275.879 622.498C273.198 622.498 270.723 620.75 269.918 618.052L261.644 590.292C260.664 586.997 262.537 583.534 265.829 582.551C269.127 581.571 272.587 583.447 273.57 586.736L281.843 614.495C282.823 617.79 280.951 621.253 277.659 622.236C277.066 622.414 276.469 622.498 275.879 622.498Z" fill="#2B468B"/>
<path d="M321.759 608.828C319.077 608.828 316.603 607.083 315.797 604.381L307.524 576.621C306.544 573.33 308.417 569.863 311.711 568.883C315.003 567.9 318.47 569.776 319.45 573.068L327.723 600.828C328.703 604.12 326.83 607.586 323.538 608.566C322.945 608.743 322.346 608.828 321.759 608.828Z" fill="#2B468B"/>
<path d="M367.635 595.154C364.954 595.154 362.479 593.406 361.674 590.708L353.403 562.948C352.423 559.656 354.296 556.19 357.591 555.21C360.883 554.23 364.349 556.106 365.329 559.397L373.6 587.157C374.58 590.449 372.707 593.915 369.412 594.895C368.822 595.073 368.223 595.154 367.635 595.154Z" fill="#2B468B"/>
<path d="M413.515 581.484C410.834 581.484 408.359 579.736 407.553 577.037L399.283 549.278C398.303 545.986 400.176 542.519 403.47 541.539C406.762 540.554 410.229 542.432 411.209 545.727L419.479 573.487C420.459 576.779 418.586 580.245 415.294 581.225C414.701 581.402 414.102 581.484 413.515 581.484Z" fill="#2B468B"/>
<path opacity="0.22" d="M244.683 698.355L201.27 711.292L212.712 749.689L256.125 736.752L244.683 698.355Z" fill="#6C7AFF"/>
<path opacity="0.22" d="M308.035 679.476L264.622 692.413L276.064 730.809L319.477 717.872L308.035 679.476Z" fill="#6C7AFF"/>
<path opacity="0.22" d="M371.387 660.599L327.973 673.536L339.415 711.933L382.829 698.996L371.387 660.599Z" fill="#6C7AFF"/>
<path d="M340.03 682.996C339.111 682.996 338.264 682.4 337.988 681.472C337.651 680.344 338.294 679.158 339.422 678.823L364.669 671.3C365.797 670.966 366.984 671.605 367.318 672.734C367.656 673.862 367.013 675.049 365.885 675.383L340.637 682.906C340.437 682.97 340.23 682.996 340.03 682.996Z" fill="#6C7AFF"/>
<path d="M342.751 692.13C341.833 692.13 340.986 691.531 340.71 690.606C340.373 689.478 341.015 688.292 342.144 687.957L367.391 680.434C368.516 680.1 369.706 680.739 370.04 681.868C370.377 682.996 369.735 684.183 368.607 684.517L343.359 692.04C343.159 692.101 342.952 692.13 342.751 692.13Z" fill="#6C7AFF"/>
<path d="M345.473 701.264C344.554 701.264 343.708 700.668 343.432 699.74C343.095 698.612 343.737 697.426 344.866 697.091L370.113 689.568C371.241 689.231 372.428 689.874 372.762 691.002C373.099 692.13 372.457 693.317 371.328 693.651L346.081 701.174C345.88 701.235 345.674 701.264 345.473 701.264Z" fill="#6C7AFF"/>
<path opacity="0.22" d="M434.745 641.714L391.331 654.651L402.773 693.048L446.187 680.111L434.745 641.714Z" fill="#6C7AFF"/>
<path opacity="0.22" d="M261.105 753.474L217.691 766.411L229.134 804.808L272.547 791.871L261.105 753.474Z" fill="#6C7AFF"/>
<path opacity="0.22" d="M324.461 734.593L281.048 747.53L292.49 785.927L335.903 772.99L324.461 734.593Z" fill="#6C7AFF"/>
<path opacity="0.22" d="M387.813 715.716L344.4 728.653L355.842 767.049L399.256 754.112L387.813 715.716Z" fill="#6C7AFF"/>
<path opacity="0.22" d="M451.172 696.831L407.758 709.768L419.2 748.165L462.614 735.227L451.172 696.831Z" fill="#6C7AFF"/>
<path opacity="0.22" d="M277.292 807.799L233.879 820.736L245.321 859.133L288.735 846.196L277.292 807.799Z" fill="#6C7AFF"/>
<path opacity="0.22" d="M340.654 788.914L297.241 801.851L308.683 840.248L352.097 827.311L340.654 788.914Z" fill="#6C7AFF"/>
<path opacity="0.22" d="M404.009 770.032L360.595 782.969L372.038 821.366L415.451 808.429L404.009 770.032Z" fill="#6C7AFF"/>
<path opacity="0.22" d="M467.358 751.158L423.945 764.095L435.387 802.492L478.801 789.555L467.358 751.158Z" fill="#6C7AFF"/>
<path d="M309.289 811.314C308.37 811.314 307.524 810.715 307.248 809.791C306.91 808.662 307.553 807.476 308.681 807.139L333.929 799.613C335.057 799.281 336.243 799.918 336.578 801.046C336.915 802.175 336.272 803.361 335.144 803.698L309.897 811.224C309.696 811.285 309.49 811.314 309.289 811.314Z" fill="#6C7AFF"/>
<path d="M312.011 820.449C311.092 820.449 310.246 819.85 309.97 818.925C309.632 817.796 310.275 816.61 311.403 816.273L336.65 808.747C337.776 808.421 338.965 809.052 339.3 810.18C339.637 811.309 338.994 812.495 337.866 812.833L312.619 820.358C312.415 820.42 312.212 820.449 312.011 820.449Z" fill="#6C7AFF"/>
<path d="M314.733 829.58C313.814 829.58 312.968 828.981 312.691 828.056C312.354 826.928 312.997 825.741 314.125 825.404L339.372 817.878C340.501 817.549 341.687 818.183 342.022 819.312C342.359 820.44 341.716 821.626 340.588 821.964L315.341 829.49C315.14 829.551 314.934 829.58 314.733 829.58Z" fill="#6C7AFF"/>
<path d="M371.235 752.122C370.517 752.337 369.72 752.276 369.014 751.892L360.008 747.022C358.588 746.254 358.059 744.483 358.827 743.064C359.595 741.642 361.368 741.115 362.785 741.883L369.223 745.364L377.572 729.922C378.342 728.503 380.111 727.977 381.533 728.742C382.949 729.51 383.478 731.283 382.713 732.703L372.971 750.712C372.585 751.424 371.951 751.91 371.235 752.122Z" fill="#6C7AFF"/>
<path d="M227.926 734.159C227.208 734.372 226.411 734.314 225.704 733.93L216.698 729.059C215.279 728.291 214.75 726.52 215.518 725.101C216.285 723.679 218.056 723.153 219.476 723.92L225.914 727.401L234.266 711.96C235.036 710.541 236.804 710.014 238.226 710.779C239.642 711.547 240.172 713.321 239.407 714.737L229.668 732.746C229.275 733.462 228.642 733.947 227.926 734.159Z" fill="#6C7AFF"/>
<path d="M434.586 733.243C433.868 733.459 433.071 733.398 432.364 733.014L423.358 728.143C421.939 727.375 421.41 725.604 422.178 724.185C422.945 722.763 424.719 722.237 426.135 723.004L432.574 726.485L440.923 711.044C441.693 709.625 443.461 709.098 444.883 709.863C446.3 710.631 446.829 712.405 446.064 713.824L436.322 731.833C435.938 732.546 435.304 733.031 434.586 733.243Z" fill="#6C7AFF"/>
<path d="M1141.43 379.147L1155.09 392.805L1163.25 384.645L1149.59 370.988L1141.43 379.147Z" fill="#769AF0"/>
<path d="M1148.77 372.332L1161.88 385.444C1165.84 389.399 1172.25 389.399 1176.2 385.444L1178.8 382.841C1182.76 378.886 1182.76 372.474 1178.8 368.519L1165.69 355.407C1161.74 351.452 1155.33 351.452 1151.37 355.407L1148.77 358.01C1144.82 361.965 1144.82 368.377 1148.77 372.332Z" fill="#6C7AFF"/>
<path d="M1009.73 336.964H1046.47V324.373H1009.73V336.964Z" fill="#769AF0"/>
<path d="M999.311 324.079H1056.9C1061.41 324.079 1065.07 320.421 1065.07 315.911V293.493C1065.07 288.982 1061.41 285.324 1056.9 285.324H999.311C994.798 285.324 991.142 288.982 991.142 293.493V315.911C991.142 320.421 994.798 324.079 999.311 324.079Z" fill="#6C7AFF"/>
<path d="M1068.86 673.331C1161.09 650.709 1217.53 557.599 1194.9 465.364C1172.28 373.129 1079.17 316.696 986.937 339.318C894.702 361.94 838.269 455.05 860.891 547.285C883.513 639.52 976.623 695.953 1068.86 673.331Z" fill="#6C7AFF"/>
<path d="M1138.37 616.754C1199.38 555.749 1199.38 456.84 1138.37 395.835C1077.37 334.83 978.459 334.83 917.454 395.835C856.448 456.84 856.448 555.749 917.454 616.754C978.459 677.759 1077.37 677.759 1138.37 616.754Z" fill="white"/>
<path opacity="0.09" d="M1062.61 353.924C1051.44 351.385 1039.86 350.062 1027.93 350.062C941.645 350.062 871.702 420.005 871.702 506.291C871.702 592.581 941.642 662.521 1027.93 662.521C1039.86 662.521 1051.44 661.198 1062.61 658.662C993.012 642.872 941.052 580.652 941.052 506.294C941.052 431.934 993.012 369.714 1062.61 353.924Z" fill="#6C7AFF"/>
<path d="M1027.92 511.395C1030.74 511.395 1033.03 509.109 1033.03 506.291V391.9C1033.03 389.082 1030.74 386.793 1027.92 386.793C1025.1 386.793 1022.82 389.079 1022.82 391.9V506.291C1022.82 509.109 1025.1 511.395 1027.92 511.395Z" fill="#2B468B"/>
<path d="M1071.89 586.884C1072.76 586.884 1073.64 586.66 1074.45 586.189C1076.89 584.769 1077.71 581.646 1076.29 579.209L1032.33 503.721C1030.92 501.284 1027.79 500.461 1025.35 501.88C1022.92 503.299 1022.09 506.422 1023.51 508.859L1067.47 584.348C1068.42 585.976 1070.13 586.884 1071.89 586.884Z" fill="#2B468B"/>
<path d="M1013.89 506.291C1013.89 514.044 1020.17 520.328 1027.92 520.328C1035.68 520.328 1041.96 514.044 1041.96 506.291C1041.96 498.539 1035.68 492.254 1027.92 492.254C1020.17 492.254 1013.89 498.539 1013.89 506.291Z" fill="#769AF0"/>
<path d="M1027.92 377.897C1029.33 377.897 1030.48 376.755 1030.48 375.344V359.795C1030.48 358.385 1029.33 357.242 1027.92 357.242C1026.51 357.242 1025.37 358.385 1025.37 359.795V375.344C1025.37 376.755 1026.51 377.897 1027.92 377.897Z" fill="#2B468B"/>
<path d="M1093.39 395.441C1094.27 395.441 1095.13 394.982 1095.61 394.165L1103.38 380.701C1104.08 379.479 1103.67 377.918 1102.45 377.214C1101.23 376.507 1099.66 376.926 1098.96 378.148L1091.19 391.612C1090.48 392.833 1090.9 394.395 1092.12 395.098C1092.52 395.331 1092.96 395.441 1093.39 395.441Z" fill="#2B468B"/>
<path d="M1141.33 443.371C1141.76 443.371 1142.2 443.261 1142.6 443.028L1156.06 435.255C1157.29 434.551 1157.7 432.989 1157 431.768C1156.29 430.547 1154.73 430.128 1153.51 430.835L1140.05 438.608C1138.83 439.311 1138.41 440.873 1139.11 442.094C1139.59 442.914 1140.44 443.371 1141.33 443.371Z" fill="#2B468B"/>
<path d="M1158.87 508.845H1174.42C1175.83 508.845 1176.97 507.702 1176.97 506.291C1176.97 504.881 1175.83 503.738 1174.42 503.738H1158.87C1157.46 503.738 1156.31 504.881 1156.31 506.291C1156.31 507.702 1157.46 508.845 1158.87 508.845Z" fill="#2B468B"/>
<path d="M1154.79 582.091C1155.67 582.091 1156.53 581.635 1157 580.815C1157.7 579.593 1157.29 578.032 1156.07 577.328L1142.6 569.552C1141.39 568.845 1139.82 569.261 1139.12 570.486C1138.41 571.707 1138.83 573.269 1140.05 573.972L1153.51 581.748C1153.91 581.981 1154.35 582.091 1154.79 582.091Z" fill="#2B468B"/>
<path d="M1101.17 635.712C1101.61 635.712 1102.04 635.601 1102.45 635.369C1103.67 634.662 1104.09 633.104 1103.38 631.882L1095.61 618.418C1094.9 617.197 1093.34 616.778 1092.12 617.485C1090.9 618.191 1090.48 619.75 1091.19 620.971L1098.96 634.435C1099.43 635.255 1100.29 635.712 1101.17 635.712Z" fill="#2B468B"/>
<path d="M1027.92 655.338C1029.33 655.338 1030.48 654.195 1030.48 652.785V637.239C1030.48 635.828 1029.33 634.686 1027.92 634.686C1026.51 634.686 1025.37 635.828 1025.37 637.239V652.785C1025.37 654.195 1026.51 655.338 1027.92 655.338Z" fill="#2B468B"/>
<path d="M954.676 635.712C955.557 635.712 956.415 635.255 956.889 634.435L964.662 620.971C965.369 619.75 964.95 618.188 963.729 617.485C962.51 616.778 960.946 617.197 960.242 618.418L952.469 631.882C951.762 633.104 952.181 634.665 953.402 635.369C953.801 635.601 954.24 635.712 954.676 635.712Z" fill="#2B468B"/>
<path d="M901.055 582.091C901.489 582.091 901.928 581.981 902.329 581.748L915.796 573.972C917.017 573.269 917.436 571.707 916.73 570.486C916.023 569.267 914.461 568.848 913.243 569.552L899.776 577.328C898.555 578.035 898.136 579.593 898.842 580.815C899.316 581.635 900.174 582.091 901.055 582.091Z" fill="#2B468B"/>
<path d="M881.429 508.845H896.976C898.386 508.845 899.529 507.702 899.529 506.291C899.529 504.881 898.386 503.738 896.976 503.738H881.429C880.019 503.738 878.876 504.881 878.876 506.291C878.876 507.702 880.019 508.845 881.429 508.845Z" fill="#2B468B"/>
<path d="M914.52 443.371C915.401 443.371 916.258 442.912 916.732 442.094C917.439 440.873 917.02 439.311 915.799 438.608L902.332 430.835C901.114 430.128 899.549 430.547 898.845 431.768C898.139 432.989 898.557 434.551 899.779 435.255L913.246 443.028C913.647 443.261 914.086 443.371 914.52 443.371Z" fill="#2B468B"/>
<path d="M962.452 395.441C962.885 395.441 963.324 395.331 963.726 395.098C964.947 394.395 965.366 392.833 964.659 391.612L956.886 378.148C956.18 376.929 954.615 376.51 953.399 377.214C952.178 377.918 951.759 379.479 952.466 380.701L960.239 394.165C960.71 394.982 961.568 395.441 962.452 395.441Z" fill="#2B468B"/>
<path d="M759.727 727C811.835 688.655 907.883 604.794 907.883 507.44H546.117C546.117 604.794 642.165 688.655 694.273 727C642.168 765.345 546.117 849.206 546.117 946.56H907.886C907.883 849.206 811.835 765.345 759.727 727Z" fill="white"/>
<path d="M889.275 908.276C883.901 888.222 868.053 872.755 848.269 866.459C824.386 858.855 791.563 851.651 761.486 856.109C761.146 856.159 760.739 856.162 760.288 856.13C755.181 855.781 751.2 851.503 750.625 846.417L738.091 735.552C737.495 730.277 739.755 725.084 744.023 721.926L751.782 716.188C780.199 695.332 818.84 663.085 848.717 623.85C851.881 619.695 848.467 613.78 843.3 614.545C812.934 619.046 750.75 624.435 698.717 604.239C653.291 586.584 628.782 600.243 616.909 612.657C610.255 619.613 610.293 630.545 616.519 637.887C644.442 670.812 677.273 697.888 702.198 716.191L709.732 721.766C714.12 725.011 716.377 730.396 715.612 735.802L700.465 842.997C699.537 849.561 693.008 853.78 686.643 851.931L681.315 850.381C664.024 845.353 646.035 843.16 628.044 843.884C605.719 844.783 585.308 857.686 575.865 877.934C567.63 895.594 561.991 914.118 560.133 933.2H893.844C893.024 924.764 891.468 916.45 889.275 908.276Z" fill="#C0CCFF"/>
<path d="M892.468 475.755H561.532C544.031 475.755 529.846 489.94 529.846 507.44H924.156C924.156 489.94 909.968 475.755 892.468 475.755Z" fill="#2B468B"/>
<path d="M561.532 978.245H892.468C909.968 978.245 924.157 964.06 924.157 946.56H529.843C529.843 964.06 544.032 978.245 561.532 978.245Z" fill="#2B468B"/>
<path d="M282.48 1077.18C262.15 1034.81 280.922 983.779 324.446 964.918C363.753 947.883 410.284 964.028 430.573 1001.76C442.758 1024.41 443.36 1049.93 434.67 1071.85C429.834 1084.05 427.182 1097.03 427.848 1110.14C428.334 1119.66 429.922 1128.84 433.379 1136.04L408.621 1147.92L383.862 1159.8C380.404 1152.6 374.242 1145.62 367.115 1139.28C357.3 1130.55 345.494 1124.5 332.94 1120.63C311.575 1114.05 292.914 1098.92 282.48 1077.18Z" fill="#FFB448"/>
<path opacity="0.67" d="M326.83 1051.78C328.066 1050.82 329.747 1051.09 330.66 1052.29L337.523 1061.29C341.094 1060.06 343.961 1060.99 346.273 1061.86C348.66 1062.75 350.004 1063.18 352.016 1062.21C354.023 1061.25 354.526 1059.93 355.329 1057.51C356.186 1054.89 357.265 1051.62 361.47 1049.6C365.666 1047.59 368.886 1048.79 371.48 1049.76C373.864 1050.67 375.205 1051.08 377.2 1050.13C379.197 1049.17 379.706 1047.86 380.497 1045.44C381.268 1043.08 382.335 1040.27 385.525 1038.25L382.8 1027.27C382.44 1025.81 383.277 1024.33 384.798 1023.96C386.264 1023.6 387.744 1024.49 388.108 1025.95L418.13 1146.99C418.441 1148.27 417.804 1149.56 416.655 1150.11C416.49 1150.19 416.321 1150.25 416.135 1150.3C414.663 1150.66 413.186 1149.77 412.823 1148.31L386.988 1044.16C386.473 1044.92 386.107 1045.87 385.694 1047.13C384.83 1049.77 383.757 1053.03 379.561 1055.05C375.365 1057.06 372.145 1055.85 369.552 1054.88C367.167 1053.98 365.826 1053.56 363.831 1054.52C361.819 1055.48 361.313 1056.8 360.513 1059.22C359.659 1061.84 358.577 1065.12 354.38 1067.13C350.178 1069.15 346.951 1067.94 344.362 1066.97C343.106 1066.49 342.138 1066.19 341.213 1066.12L406.297 1151.44C407.213 1152.64 406.978 1154.35 405.779 1155.27C405.622 1155.39 405.465 1155.48 405.302 1155.56C404.154 1156.11 402.752 1155.8 401.947 1154.76L326.315 1055.6C325.394 1054.4 325.629 1052.7 326.83 1051.78Z" fill="white"/>
<path d="M412.052 1198.02L445.546 1181.94C449.972 1179.82 451.836 1174.51 449.713 1170.09L433.379 1136.05L383.859 1159.81L400.193 1193.85C402.319 1198.27 407.626 1200.14 412.052 1198.02Z" fill="white"/>
<path d="M426.682 1202.81L440.132 1196.36C445.436 1193.81 447.669 1187.45 445.125 1182.15L412.471 1197.82C415.015 1203.12 421.378 1205.35 426.682 1202.81Z" fill="#2B468B"/>
<path d="M387.128 1177.66C386.249 1177.36 385.487 1176.71 385.051 1175.81C384.182 1173.99 384.947 1171.82 386.758 1170.95L440.248 1145.28C442.06 1144.41 444.235 1145.17 445.104 1146.98C445.974 1148.8 445.209 1150.97 443.397 1151.84L389.908 1177.51C389.003 1177.95 388.009 1177.97 387.128 1177.66Z" fill="#2B468B"/>
<path d="M394.386 1192.78C393.508 1192.47 392.746 1191.83 392.31 1190.92C391.44 1189.11 392.205 1186.94 394.017 1186.07L447.506 1160.4C449.318 1159.53 451.493 1160.29 452.363 1162.1C453.232 1163.92 452.467 1166.09 450.656 1166.96L397.166 1192.63C396.262 1193.07 395.264 1193.09 394.386 1192.78Z" fill="#2B468B"/>
<path opacity="0.09" d="M733.194 727C681.112 765.357 585.061 849.194 585.061 946.554H546.122C546.122 849.194 642.174 765.357 694.285 727C642.174 688.643 546.122 604.806 546.122 507.446H585.061C585.061 604.806 681.112 688.643 733.194 727Z" fill="#6C7AFF"/>
</svg>
