<svg width="500" height="500" viewBox="0 0 500 500" fill="none" xmlns="http://www.w3.org/2000/svg">
<path d="M51.179 296.873C51.179 296.873 58.079 357.075 109.24 382.792C160.401 408.509 210.515 383.49 256.521 377.462C280.614 374.306 302.956 386.152 326.58 388.632C402.117 396.561 461.396 307.547 450.762 242.068C441.557 185.382 405.334 145.374 339.331 116.828C273.327 88.282 227.927 65.568 151.261 92.412C74.595 119.256 45.713 218.927 51.179 296.873Z" fill="#C6FF00"/>
<path opacity="0.8" d="M51.179 296.873C51.179 296.873 58.079 357.075 109.24 382.792C160.401 408.509 210.515 383.49 256.521 377.462C280.614 374.306 302.956 386.152 326.58 388.632C402.117 396.561 461.396 307.547 450.762 242.068C441.557 185.382 405.334 145.374 339.331 116.828C273.327 88.282 227.927 65.568 151.261 92.412C74.595 119.256 45.713 218.927 51.179 296.873Z" fill="white"/>
<path d="M304.311 383.86H449.602V150.917H304.311V383.86ZM380.12 327.852H443.884V322.205H380.12V270.213H443.884V264.566H380.12V213.66H443.884V208.013H380.12V156.564H444.297V378.213H380.12V327.852ZM309.616 156.564H374.814V208.013H309.616V156.564ZM309.616 213.66H374.814V264.565H309.616V213.66ZM309.616 270.212H374.814V322.204H309.616V270.212ZM309.616 327.852H374.814V378.214H309.616V327.852Z" fill="#B5B5B5"/>
<path d="M449.109 145.582C447.481 127.524 439.205 110.798 425.807 98.484C412.324 86.093 394.807 79.269 376.482 79.269C358.157 79.269 340.639 86.093 327.156 98.484C313.758 110.798 305.483 127.523 303.854 145.582L303.511 149.388H449.453L449.109 145.582ZM311.261 142.403C313.243 128.95 319.17 116.965 327.793 107.551L368.76 142.403H311.261ZM372.287 136.235L332.797 102.639C343.454 93.254 357.18 87.33 372.287 86.398V136.235ZM379.272 86.316C393.535 86.899 406.627 91.933 417.15 100.137L379.272 135.72V86.316ZM382.357 142.403L422.443 104.747C432.542 114.529 439.516 127.576 441.701 142.403H382.357Z" fill="#B5B5B5"/>
<path d="M134.037 302.729C130.768 303.504 128.063 305.388 125.749 307.803C123.799 309.839 122.173 312.173 120.754 314.603C119.846 316.158 119.025 317.764 118.269 319.398C117.776 320.462 117.407 321.793 116.939 323.008C116.269 324.088 115.606 325.201 115.039 326.234C117.051 319.029 123.499 305.763 123.612 301.988C123.735 297.887 119.804 304.015 117.591 312.337C115.92 318.621 115.081 324.317 114.771 326.731C114.544 327.158 114.337 327.568 114.157 327.951C113.761 328.795 113.072 330.223 112.156 332.083C114.108 325.963 114.89 318.693 113.68 317.792C111.934 316.49 111.303 319.684 111.305 325.573C111.306 330.209 109.842 335.794 109.219 337.962C108.117 340.14 106.886 342.544 105.57 345.073C106.95 340.662 107.753 334.31 108.508 329.555C109.608 322.628 109.137 320.472 106.896 323.796C104.655 327.119 105.045 331.95 105.582 337.855C106.008 342.538 104.304 347.154 103.58 348.865C101.886 352.068 100.096 355.385 98.285 358.639C99.395 356.224 100.74 352.521 101.171 348.073C101.946 340.065 100.917 332.718 99.071 334.804C97.224 336.89 98.306 342.455 98.103 349.23C97.924 355.212 96.936 360.332 96.707 361.45C96.522 361.776 96.338 362.1 96.153 362.424C96.993 359.042 96.95 355.475 96.695 351.993C97.066 350.65 96.936 349.801 96.492 349.387C96.428 347.881 96.553 345.614 95.908 344.46C94.294 341.574 92.519 345.467 92.503 346.996C92.491 348.172 92.59 349.343 92.741 350.51C92.156 351.048 91.594 351.717 91.123 352.504C90.878 352.912 90.62 353.373 90.351 353.871C90.381 353.387 90.408 352.9 90.427 352.407C90.47 351.264 90.291 349.7 89.628 348.637C90.569 346.64 91.382 344.591 91.721 342.487C91.836 341.771 91.877 340.999 91.537 340.355C90.985 339.309 89.995 339.104 88.953 339.657C85.873 341.291 85.048 345.21 84.704 348.351C84.406 351.071 83.812 353.703 83.103 356.349C82.469 358.717 81.925 360.864 81.559 362.33C81.294 360.683 80.975 359.077 80.586 357.603C80.244 356.306 79.912 355.064 79.583 353.855C79.402 351.488 79.451 346.549 82.062 341.19C85.703 333.714 88.329 330.218 85.812 330.056C83.295 329.894 79.629 333.829 79.106 339.989C78.765 344.009 78.581 348.093 78.865 351.242C78.067 348.373 77.281 345.667 76.456 342.92C76.128 341.322 75.616 337.595 76.912 333.766C78.629 328.694 83.76 319.671 81.059 320.382C78.359 321.093 75.116 326.319 74.759 331.858C74.565 334.875 75.143 338.128 75.71 340.465C75.116 338.527 74.496 336.539 73.83 334.43C73.545 333.53 73.253 332.577 72.958 331.593C72.936 331.428 72.911 331.26 72.881 331.088C72.666 329.29 72.601 325.938 74.364 322.761C76.938 318.124 81.744 314.136 78.906 313.068C76.068 312.001 71.789 319.562 71.546 323.338C71.46 324.676 71.632 326.205 71.889 327.622C71.78 327.33 71.665 327.035 71.543 326.738C70.929 324.577 70.339 322.442 69.823 320.543C69.706 319.006 69.828 316.17 71.459 312.432C73.979 306.653 77.186 300.035 73.918 301.72C71.276 303.082 68.425 310.88 68.993 317.46C68.764 316.603 68.568 315.859 68.411 315.263C67.978 311.487 67.168 302.608 68.387 297.319C69.201 293.784 70.519 290.449 70.934 286.818C70.977 286.442 71.011 286.049 70.871 285.697C69.992 283.504 67.141 287.766 66.673 288.47C64.813 291.268 64.121 294.49 64.079 297.835C64.043 300.654 64.447 303.47 65.069 306.214C65.467 307.971 65.963 309.705 66.525 311.415C66.891 312.529 67.529 313.754 68.017 314.961C68.264 316.208 68.539 317.473 68.83 318.615C65.384 311.976 61.043 297.879 58.549 295.042C55.84 291.961 57.149 299.123 61.21 306.715C64.278 312.449 67.552 317.185 68.972 319.161C69.098 319.628 69.226 320.07 69.356 320.472C69.642 321.359 70.113 322.873 70.713 324.858C67.963 319.052 63.573 313.206 62.074 313.372C59.91 313.612 61.628 316.377 65.648 320.68C68.813 324.068 71.555 329.149 72.578 331.159C73.259 333.504 74 336.1 74.764 338.846C72.763 334.68 69.015 329.489 66.321 325.498C62.397 319.684 60.582 318.43 61.212 322.389C61.842 326.348 65.424 329.612 69.846 333.562C73.353 336.695 75.258 341.232 75.897 342.977C76.845 346.474 77.8 350.12 78.697 353.734C77.861 351.211 76.316 347.587 73.595 344.042C68.697 337.66 62.93 332.991 63.004 335.777C63.078 338.563 67.666 341.891 72.142 346.982C76.093 351.477 78.866 355.893 79.461 356.867C79.548 357.231 79.635 357.595 79.721 357.957C77.681 354.291 74.527 351.297 71.428 348.535C70.337 347.562 68.686 345.443 67.282 344.994C64.133 343.986 65.492 348.043 66.524 349.171C69.893 352.855 74.629 355.121 77.74 358.986C78.907 360.435 79.96 362.009 80.881 363.634C81.095 364.903 81.263 366.089 81.392 367.196C80.203 366.013 77.803 364.103 77.631 363.987C73.828 361.426 71.624 357.924 68.699 354.545C67.821 353.531 66.325 352.292 64.916 352.228C62.953 352.138 62.323 354.24 62.88 355.884C65.183 362.685 73.856 362.978 78.97 366.512C80.563 367.613 81.251 368.27 81.537 368.592C81.776 371.168 81.793 373.254 81.709 374.907H70.056V379.782H73.528L76.349 397.123H99.713L102.535 379.782H106.006V374.907H88.428C89.231 373.941 90.086 372.884 90.952 371.769L94.653 371.88C94.653 371.88 107.485 372.443 112.201 369.908C116.917 367.372 112.707 364.926 108.207 366.219C103.707 367.512 94.842 371.529 92.881 371.47C91.967 371.443 91.482 371.428 91.221 371.42C92.136 370.233 93.054 368.989 93.928 367.729C95.79 367.273 99.772 366.205 104.335 364.409C108.033 362.954 112.303 361.77 115.48 359.306C116.053 358.862 116.609 358.325 116.8 357.623C117.11 356.482 116.527 355.656 115.388 355.349C112.022 354.442 108.743 356.743 106.349 358.804C104.275 360.589 102.044 362.107 99.72 363.558C97.641 364.856 95.777 366.054 94.51 366.876C95.44 365.491 96.303 364.1 97.025 362.757C97.661 361.575 98.265 360.441 98.85 359.333C100.333 357.479 103.74 353.903 109.305 351.767C117.068 348.788 121.374 348.024 119.645 346.188C117.915 344.352 112.55 344.726 107.965 348.872C104.972 351.578 102.051 354.437 100.109 356.933C101.484 354.291 102.756 351.777 104.027 349.206C104.877 347.814 107.048 344.741 110.608 342.826C115.324 340.29 125.232 337.197 122.774 335.874C120.315 334.551 114.378 336.158 110.337 339.963C108.136 342.036 106.339 344.808 105.158 346.903C106.047 345.081 106.95 343.205 107.902 341.209C108.309 340.357 108.745 339.461 109.201 338.54C109.298 338.404 109.394 338.264 109.489 338.118C110.558 336.657 112.799 334.163 116.256 333.044C121.302 331.411 127.537 331.776 126.191 329.059C124.845 326.342 116.558 328.949 113.803 331.543C112.827 332.462 111.909 333.697 111.13 334.908C111.25 334.62 111.366 334.326 111.481 334.026C112.507 332.027 113.533 330.064 114.451 328.325C115.415 327.122 117.439 325.132 121.182 323.513C126.968 321.01 133.829 318.36 130.289 317.362C127.428 316.555 120.023 320.308 115.947 325.506C116.365 324.723 116.729 324.045 117.021 323.503C119.282 320.448 124.749 313.405 129.25 310.371C132.257 308.343 135.497 306.805 138.278 304.434C138.565 304.189 138.859 303.924 138.996 303.572C139.851 301.365 134.859 302.534 134.037 302.729ZM81.716 363.352C82.468 362.203 83.802 360.077 85.273 357.339C85.697 358.555 86.247 359.762 86.822 360.96C85.458 363.75 84.216 366.175 83.503 366.801C82.816 367.405 82.452 367.725 82.256 367.897C82.115 366.406 81.938 364.87 81.716 363.352ZM90.225 371.435C89.159 372.813 88.175 373.95 87.279 374.905H82.72C82.646 373.052 82.52 370.769 82.299 368.336L85.08 365.891C85.08 365.891 86.296 364.851 87.944 363.284C88.718 364.919 89.415 366.543 89.769 368.162C90.181 370.055 90.235 371.005 90.225 371.435ZM94.004 361.823C93.868 363.678 93.564 365.548 93.128 367.364C92.419 368.438 91.732 369.419 91.07 370.316C91.008 368.64 90.558 365.606 90.511 365.404C90.185 363.992 90.04 362.621 89.999 361.264C91.284 359.956 92.629 358.493 93.783 357.037C93.999 358.63 94.121 360.224 94.004 361.823Z" fill="#263238"/>
<path d="M368.02 363.307L384.206 389.384C386.269 392.707 383.879 397.004 379.967 397.004H348.267H305.856H346.902C350.803 397.004 353.195 392.729 351.153 389.405L335.485 363.889L368.02 363.307Z" fill="white" stroke="#263238" stroke-width="1.1483" stroke-miterlimit="10" stroke-linecap="round" stroke-linejoin="round"/>
<path d="M368.02 363.307L335.485 363.888L341.51 373.699H374.47L368.02 363.307Z" fill="#263238" stroke="#263238" stroke-width="1.1483" stroke-miterlimit="10" stroke-linecap="round" stroke-linejoin="round"/>
<path d="M281.461 369.117H413.91C415.518 369.117 416.822 367.813 416.822 366.205V255.252C416.822 253.644 415.518 252.34 413.91 252.34H281.461C279.853 252.34 278.549 253.644 278.549 255.252V366.205C278.549 367.813 279.853 369.117 281.461 369.117Z" fill="white" stroke="#263238" stroke-width="1.1483" stroke-miterlimit="10" stroke-linecap="round" stroke-linejoin="round"/>
<path d="M276.232 369.117H408.681C410.289 369.117 411.593 367.813 411.593 366.205V255.252C411.593 253.644 410.289 252.34 408.681 252.34H276.232C274.624 252.34 273.32 253.644 273.32 255.252V366.205C273.321 367.813 274.624 369.117 276.232 369.117Z" fill="white" stroke="#263238" stroke-width="1.1483" stroke-miterlimit="10" stroke-linecap="round" stroke-linejoin="round"/>
<path d="M277.968 252.34H406.945C409.512 252.34 411.593 254.421 411.593 256.988V348.201H273.321V256.988C273.321 254.421 275.402 252.34 277.968 252.34Z" fill="#263238" stroke="#263238" stroke-width="1.1483" stroke-miterlimit="10" stroke-linecap="round" stroke-linejoin="round"/>
<path d="M279.131 341.811H405.784V256.989H279.131V341.811Z" fill="white" stroke="#263238" stroke-width="1.1483" stroke-miterlimit="10" stroke-linecap="round" stroke-linejoin="round"/>
<path d="M241.762 391.164H237.74V392.505H241.762V391.164Z" fill="white" stroke="#263238" stroke-width="1.1483" stroke-miterlimit="10" stroke-linecap="round" stroke-linejoin="round"/>
<path d="M247.126 391.164H243.103V392.505H247.126V391.164Z" fill="white" stroke="#263238" stroke-width="1.1483" stroke-miterlimit="10" stroke-linecap="round" stroke-linejoin="round"/>
<path d="M252.488 391.164H248.466V392.505H252.488V391.164Z" fill="white" stroke="#263238" stroke-width="1.1483" stroke-miterlimit="10" stroke-linecap="round" stroke-linejoin="round"/>
<path d="M257.852 391.164H253.829V392.505H257.852V391.164Z" fill="white" stroke="#263238" stroke-width="1.1483" stroke-miterlimit="10" stroke-linecap="round" stroke-linejoin="round"/>
<path d="M263.215 391.164H259.193V392.505H263.215V391.164Z" fill="white" stroke="#263238" stroke-width="1.1483" stroke-miterlimit="10" stroke-linecap="round" stroke-linejoin="round"/>
<path d="M268.579 391.164H264.556V392.505H268.579V391.164Z" fill="white" stroke="#263238" stroke-width="1.1483" stroke-miterlimit="10" stroke-linecap="round" stroke-linejoin="round"/>
<path d="M273.941 391.164H269.919V392.505H273.941V391.164Z" fill="white" stroke="#263238" stroke-width="1.1483" stroke-miterlimit="10" stroke-linecap="round" stroke-linejoin="round"/>
<path d="M279.306 391.164H275.283V392.505H279.306V391.164Z" fill="white" stroke="#263238" stroke-width="1.1483" stroke-miterlimit="10" stroke-linecap="round" stroke-linejoin="round"/>
<path d="M284.669 391.164H280.646V392.505H284.669V391.164Z" fill="white" stroke="#263238" stroke-width="1.1483" stroke-miterlimit="10" stroke-linecap="round" stroke-linejoin="round"/>
<path d="M290.032 391.164H286.009V392.505H290.032V391.164Z" fill="white" stroke="#263238" stroke-width="1.1483" stroke-miterlimit="10" stroke-linecap="round" stroke-linejoin="round"/>
<path d="M295.395 391.164H291.373V392.505H295.395V391.164Z" fill="white" stroke="#263238" stroke-width="1.1483" stroke-miterlimit="10" stroke-linecap="round" stroke-linejoin="round"/>
<path d="M300.758 391.164H296.736V392.505H300.758V391.164Z" fill="white" stroke="#263238" stroke-width="1.1483" stroke-miterlimit="10" stroke-linecap="round" stroke-linejoin="round"/>
<path d="M306.121 391.164H302.099V392.505H306.121V391.164Z" fill="white" stroke="#263238" stroke-width="1.1483" stroke-miterlimit="10" stroke-linecap="round" stroke-linejoin="round"/>
<path d="M311.486 391.164H307.463V392.505H311.486V391.164Z" fill="white" stroke="#263238" stroke-width="1.1483" stroke-miterlimit="10" stroke-linecap="round" stroke-linejoin="round"/>
<path d="M316.848 391.164H312.826V392.505H316.848V391.164Z" fill="white" stroke="#263238" stroke-width="1.1483" stroke-miterlimit="10" stroke-linecap="round" stroke-linejoin="round"/>
<path d="M322.212 391.164H318.189V392.505H322.212V391.164Z" fill="white" stroke="#263238" stroke-width="1.1483" stroke-miterlimit="10" stroke-linecap="round" stroke-linejoin="round"/>
<path d="M327.575 391.164H323.553V392.505H327.575V391.164Z" fill="white" stroke="#263238" stroke-width="1.1483" stroke-miterlimit="10" stroke-linecap="round" stroke-linejoin="round"/>
<path d="M332.939 391.164H328.916V392.505H332.939V391.164Z" fill="white" stroke="#263238" stroke-width="1.1483" stroke-miterlimit="10" stroke-linecap="round" stroke-linejoin="round"/>
<path d="M338.302 391.164H334.279V392.505H338.302V391.164Z" fill="white" stroke="#263238" stroke-width="1.1483" stroke-miterlimit="10" stroke-linecap="round" stroke-linejoin="round"/>
<path d="M343.665 391.164H339.642V392.505H343.665V391.164Z" fill="white" stroke="#263238" stroke-width="1.1483" stroke-miterlimit="10" stroke-linecap="round" stroke-linejoin="round"/>
<path d="M349.029 391.164H345.006V392.505H349.029V391.164Z" fill="white" stroke="#263238" stroke-width="1.1483" stroke-miterlimit="10" stroke-linecap="round" stroke-linejoin="round"/>
<path d="M351.957 392.699H235.664V397.034H351.957V392.699Z" fill="white" stroke="#263238" stroke-width="1.1483" stroke-miterlimit="10" stroke-linecap="round" stroke-linejoin="round"/>
<path d="M351.957 392.699H323.59V397.034H351.957V392.699Z" fill="#263238" stroke="#263238" stroke-width="1.1483" stroke-miterlimit="10" stroke-linecap="round" stroke-linejoin="round"/>
<path d="M293.922 309.798L311.718 267.712H322.395V309.798H327.022V318.695H322.395V329.995H312.786V318.695H293.923V309.798H293.922ZM312.785 309.798V286.396L302.909 309.798H312.785Z" fill="#263238"/>
<path d="M330.673 282.66C330.673 272.694 335.922 267 345.532 267C355.141 267 360.391 272.695 360.391 282.66V315.048C360.391 325.014 355.142 330.709 345.532 330.709C335.923 330.709 330.673 325.015 330.673 315.048V282.66ZM340.459 315.671C340.459 320.12 342.417 321.81 345.531 321.81C348.645 321.81 350.603 320.12 350.603 315.671V282.037C350.603 277.588 348.645 275.898 345.531 275.898C342.417 275.898 340.459 277.589 340.459 282.037V315.671Z" fill="#263238"/>
<path d="M372.76 275.542C380.323 275.542 382.014 271.894 383.527 267.712H390.111V329.996H380.323V282.482H372.76V275.542Z" fill="#263238"/>
<mask id="mask0_1_2" style="mask-type:luminance" maskUnits="userSpaceOnUse" x="88" y="152" width="227" height="246">
<path d="M314.07 152.819H88.234V397.034H314.07V152.819Z" fill="white"/>
</mask>
<g mask="url(#mask0_1_2)">
<path d="M253.369 203.862C253.369 203.862 256.172 209.118 256.172 217.176C256.172 225.235 252.318 232.943 253.369 236.097C254.42 239.25 254.776 250.361 252.609 252.529C251.37 253.768 246.106 252.168 246.106 252.168C246.106 252.168 244.704 256.373 243.303 256.373C241.902 256.373 238.047 255.672 236.646 258.125C235.244 260.578 237.347 263.381 235.945 264.782C234.544 266.183 232.792 267.235 232.792 267.235C232.792 267.235 229.076 270.617 226.624 270.617C224.171 270.617 212.074 262.097 212.074 262.097C212.074 262.097 202.844 268.017 198.989 270.82C195.135 273.623 193 283.238 193 283.238C193 283.238 172.224 268.492 175.727 254.828C179.231 241.163 220.433 221.734 233.747 214.025C247.063 206.314 253.369 203.862 253.369 203.862Z" fill="#B2B2B2" stroke="#263238" stroke-width="1.1483" stroke-miterlimit="10" stroke-linecap="round" stroke-linejoin="round"/>
<path d="M250.216 232.242C250.216 232.242 251.401 226.808 246.496 226.808" stroke="#263238" stroke-width="2.2966" stroke-miterlimit="10" stroke-linecap="round" stroke-linejoin="round"/>
<path d="M245.563 221.212C245.074 220.275 250.401 217.255 254.191 220.513" stroke="#263238" stroke-width="2.2966" stroke-miterlimit="10" stroke-linecap="round" stroke-linejoin="round"/>
<path d="M249.623 232.078C249.01 233.355 247.948 234.119 247.251 233.784C246.555 233.449 246.487 232.143 247.101 230.866C247.715 229.589 248.777 228.826 249.473 229.16C250.169 229.495 250.236 230.801 249.623 232.078Z" fill="#263238"/>
<path d="M213.614 246.727C213.614 248.262 212.37 249.507 210.834 249.507C209.299 249.507 208.055 248.263 208.055 246.727C208.055 245.192 209.299 243.948 210.834 243.948C212.369 243.948 213.614 245.192 213.614 246.727Z" fill="white" stroke="#263238" stroke-width="1.1483" stroke-miterlimit="10" stroke-linecap="round" stroke-linejoin="round"/>
<path d="M210.834 249.507V259.317" stroke="#263238" stroke-width="1.1483" stroke-miterlimit="10" stroke-linecap="round" stroke-linejoin="round"/>
<path d="M210.671 256.047C210.671 256.047 206.42 268.146 207.074 269.127C207.728 270.108 214.759 269.618 215.249 269.127C215.739 268.637 210.671 256.047 210.671 256.047Z" fill="white" stroke="#263238" stroke-width="1.1483" stroke-miterlimit="10" stroke-linecap="round" stroke-linejoin="round"/>
<path d="M229.421 301.441C229.421 301.441 238.155 307.076 235.901 307.358C233.647 307.64 230.829 307.076 228.575 305.668C226.321 304.259 223.785 303.978 221.813 303.978C219.841 303.978 216.178 303.978 216.178 303.978C216.178 303.978 218.432 300.034 221.25 299.47C224.068 298.906 229.421 301.441 229.421 301.441Z" fill="#B2B2B2" stroke="#263238" stroke-width="1.1483" stroke-miterlimit="10" stroke-linecap="round"/>
<path d="M228.857 296.933C228.857 296.933 240.69 302.568 240.408 303.977C240.126 305.386 239.563 305.667 236.464 305.386C233.365 305.104 227.166 301.442 227.166 301.442L220.122 300.315C220.122 300.315 224.349 294.115 228.857 296.933Z" fill="#B2B2B2" stroke="#263238" stroke-width="1.1483" stroke-miterlimit="10" stroke-linecap="round"/>
<path d="M199.274 300.314C199.274 300.314 210.544 294.397 213.08 292.989C215.616 291.58 220.687 292.144 224.35 292.144C228.013 292.144 239.846 292.426 240.409 294.68C240.973 296.934 237.028 297.497 233.084 297.497C229.14 297.497 225.759 296.934 222.659 300.314C219.56 303.695 217.869 308.203 217.869 308.203C217.869 308.203 223.222 309.33 226.885 309.33C230.548 309.33 236.183 310.739 235.619 312.429C235.056 314.119 233.647 315.81 229.139 315.246C224.631 314.683 218.433 315.528 213.643 315.81C208.853 316.092 201.528 314.683 201.528 314.683L199.274 300.314Z" fill="#B2B2B2" stroke="#263238" stroke-width="1.1483" stroke-miterlimit="10" stroke-linecap="round"/>
<path d="M203.414 280.802C203.414 280.802 206.438 280.802 204.321 287.455C202.204 294.108 200.995 306.809 200.995 306.809L191.318 274.754L203.414 280.802Z" fill="#545454" stroke="#263238" stroke-width="1.1483" stroke-miterlimit="10" stroke-linecap="round"/>
<path d="M196.566 276.149C196.566 276.149 185.473 263.637 174.274 258.218C163.075 252.799 142.423 268.424 132.308 283.959C122.193 299.493 99.975 377.888 93.472 392.7C86.969 407.512 112.077 416.905 139.895 420.156C167.712 423.407 189.75 405.705 195.891 394.145C202.033 382.585 204.2 346.458 203.116 322.615C202.032 298.772 201.263 284.819 196.566 276.149Z" fill="#C6FF00" stroke="#263238" stroke-width="1.1483" stroke-miterlimit="10" stroke-linecap="round" stroke-linejoin="round"/>
<path d="M167.219 319.227C169.343 330.672 182.195 390.237 182.885 391.615C183.608 393.06 189.112 408.242 209.98 404.982C221.541 403.176 227.682 398.118 233.462 391.977C239.242 385.835 258.75 351.877 258.75 351.877C258.75 351.877 260.918 351.516 265.976 348.625C269.256 346.751 274.39 341.804 278.372 342.688C281.625 343.41 285.011 343.402 288.324 343.302C291.043 343.22 294.264 343.096 296.322 341.039C298.013 339.348 294.468 339.657 293.522 339.578C290.526 339.327 287.768 338.181 284.887 337.428C283.982 337.191 280.583 335.904 279.704 336.343C279.704 336.343 281.149 335.62 282.233 334.898C283.317 334.175 285.09 334.292 287.257 334.292C288.629 334.292 290.817 334.42 292.93 334.145C293.803 334.132 303.323 332.742 300.759 330.17C299.968 329.382 297.637 329.475 296.621 329.337C291.296 328.614 286.357 328.553 281.004 329.033L287.543 326.298C288.94 326.104 290.398 326.049 291.737 326.041C292.54 326.08 293.444 326.094 294.365 326.048C295.963 326.047 299.895 325.494 300.69 323.91C301.962 321.374 291.102 320.221 289.531 320.221C287.825 320.221 279.866 321.216 279.44 321.216C279.44 321.216 278.803 321.334 277.831 321.531C277.641 321.531 277.536 321.531 277.536 321.531C277.536 321.531 285.123 319.363 288.374 319.363C291.625 319.363 295.961 320.447 297.044 317.195C298.128 313.944 289.819 315.027 282.593 315.389C275.368 315.75 270.31 320.086 265.975 323.698C261.64 327.311 253.331 342.845 244.299 350.793C235.267 358.741 216.481 365.966 216.481 365.966C216.481 365.966 205.623 304.513 200.926 286.811C196.229 269.109 183.964 264.519 183.964 264.519" fill="#C6FF00"/>
<path d="M167.219 319.227C169.343 330.672 182.195 390.237 182.885 391.615C183.608 393.06 189.112 408.242 209.98 404.982C221.541 403.176 227.682 398.118 233.462 391.977C239.242 385.835 258.75 351.877 258.75 351.877C258.75 351.877 260.918 351.516 265.976 348.625C269.256 346.751 274.39 341.804 278.372 342.688C281.625 343.41 285.011 343.402 288.324 343.302C291.043 343.22 294.264 343.096 296.322 341.039C298.013 339.348 294.468 339.657 293.522 339.578C290.526 339.327 287.768 338.181 284.887 337.428C283.982 337.191 280.583 335.904 279.704 336.343C279.704 336.343 281.149 335.62 282.233 334.898C283.317 334.175 285.09 334.292 287.257 334.292C288.629 334.292 290.817 334.42 292.93 334.145C293.803 334.132 303.323 332.742 300.759 330.17C299.968 329.382 297.637 329.475 296.621 329.337C291.296 328.614 286.357 328.553 281.004 329.033L287.543 326.298C288.94 326.104 290.398 326.049 291.737 326.041C292.54 326.08 293.444 326.094 294.365 326.048C295.963 326.047 299.895 325.494 300.69 323.91C301.962 321.374 291.102 320.221 289.531 320.221C287.825 320.221 279.866 321.216 279.44 321.216C279.44 321.216 278.803 321.334 277.831 321.531C277.641 321.531 277.536 321.531 277.536 321.531C277.536 321.531 285.123 319.363 288.374 319.363C291.625 319.363 295.961 320.447 297.044 317.195C298.128 313.944 289.819 315.027 282.593 315.389C275.368 315.75 270.31 320.086 265.975 323.698C261.64 327.311 253.331 342.845 244.299 350.793C235.267 358.741 216.481 365.966 216.481 365.966C216.481 365.966 205.623 304.513 200.926 286.811C196.229 269.109 183.964 264.519 183.964 264.519" stroke="#263238" stroke-width="1.1483" stroke-miterlimit="10" stroke-linecap="round" stroke-linejoin="round"/>
<path d="M288.324 343.301C291.043 343.219 294.264 343.095 296.322 341.038C298.013 339.347 294.468 339.656 293.522 339.577C290.525 339.326 287.768 338.18 284.887 337.427C283.982 337.19 280.583 335.903 279.704 336.342C279.704 336.342 281.149 335.619 282.233 334.897C283.317 334.174 285.09 334.291 287.257 334.291C288.629 334.291 290.817 334.419 292.93 334.144C293.803 334.131 303.323 332.742 300.759 330.17C299.968 329.382 297.637 329.475 296.621 329.337C291.296 328.614 286.357 328.553 281.004 329.033L287.543 326.298C288.94 326.104 290.398 326.049 291.737 326.041C292.54 326.08 293.444 326.094 294.365 326.048C295.963 326.047 299.895 325.494 300.69 323.909C301.962 321.373 291.102 320.221 289.531 320.221C287.825 320.221 279.866 321.216 279.44 321.216C279.44 321.216 278.803 321.334 277.831 321.531C277.641 321.531 277.536 321.531 277.536 321.531C277.536 321.531 285.123 319.363 288.374 319.363C291.625 319.363 295.961 320.447 297.044 317.195C298.128 313.944 289.819 315.027 282.593 315.389C275.368 315.75 270.31 320.086 265.975 323.698C261.64 327.311 253.331 342.845 244.299 350.793C235.267 358.741 216.481 365.966 216.481 365.966C216.481 365.966 211.419 338.293 206.714 315.121C188.888 318.789 176.813 328.983 170.564 335.646C175.114 357.307 182.37 390.589 182.883 391.615C183.606 393.06 189.11 408.242 209.978 404.982C221.539 403.176 227.68 398.118 233.46 391.977C239.24 385.835 258.748 351.877 258.748 351.877C258.748 351.877 260.916 351.516 265.974 348.625C269.254 346.751 274.388 341.804 278.37 342.688C281.625 343.41 285.011 343.402 288.324 343.301Z" fill="#263238" stroke="#263238" stroke-width="1.1483" stroke-miterlimit="10" stroke-linecap="round" stroke-linejoin="round"/>
<path d="M296.621 329.336C291.296 328.613 286.357 328.552 281.004 329.032L287.543 326.297C288.94 326.103 290.398 326.048 291.737 326.04C292.54 326.079 293.444 326.093 294.365 326.047C295.963 326.046 299.895 325.493 300.69 323.908C301.962 321.372 291.102 320.22 289.531 320.22C287.825 320.22 279.866 321.215 279.44 321.215C279.44 321.215 278.803 321.333 277.831 321.53C277.641 321.53 277.536 321.53 277.536 321.53C277.536 321.53 285.123 319.362 288.374 319.362C291.625 319.362 295.961 320.446 297.044 317.194C298.128 313.943 289.819 315.026 282.593 315.388C275.368 315.749 270.31 320.085 265.975 323.697C261.64 327.31 253.331 342.844 244.299 350.792C235.267 358.74 216.481 365.965 216.481 365.965C216.481 365.965 212.319 343.212 208.035 321.692C188.36 325.073 176.732 336.092 171.871 341.834C176.383 363.113 182.417 390.682 182.884 391.615C183.607 393.06 189.111 408.242 209.979 404.982C221.54 403.176 227.681 398.118 233.461 391.977C239.241 385.835 258.749 351.877 258.749 351.877C258.749 351.877 260.917 351.516 265.975 348.625C269.255 346.751 274.389 341.804 278.371 342.688C281.624 343.41 285.01 343.402 288.323 343.301C291.042 343.219 294.263 343.095 296.321 341.038C298.012 339.347 294.467 339.656 293.521 339.577C290.524 339.326 287.767 338.18 284.886 337.427C283.981 337.19 280.582 335.903 279.703 336.342C279.703 336.342 281.148 335.619 282.232 334.897C283.316 334.174 285.089 334.291 287.256 334.291C288.628 334.291 290.816 334.419 292.929 334.144C293.802 334.131 303.322 332.742 300.758 330.17C299.968 329.381 297.638 329.474 296.621 329.336Z" fill="#B2B2B2" stroke="#263238" stroke-width="1.1483" stroke-miterlimit="10" stroke-linecap="round" stroke-linejoin="round"/>
<path d="M216.483 365.965L220.276 384.571" stroke="#263238" stroke-width="1.1483" stroke-miterlimit="10" stroke-linecap="round" stroke-linejoin="round"/>
<path d="M203.414 280.802C203.414 280.802 187.762 276.733 177.466 280.526C167.17 284.319 138.45 423.045 138.45 423.045C138.45 423.045 107.562 421.419 98.891 404.621C98.891 404.621 144.952 292.99 154.706 274.566C164.46 256.141 180.574 259.188 180.574 259.188L203.414 280.802Z" fill="#C6FF00"/>
<mask id="mask1_1_2" style="mask-type:luminance" maskUnits="userSpaceOnUse" x="98" y="258" width="106" height="166">
<path d="M203.414 280.802C203.414 280.802 187.762 276.733 177.466 280.526C167.17 284.319 138.45 423.045 138.45 423.045C138.45 423.045 107.562 421.419 98.891 404.621C98.891 404.621 144.952 292.99 154.706 274.566C164.46 256.141 180.574 259.188 180.574 259.188L203.414 280.802Z" fill="white"/>
</mask>
<g mask="url(#mask1_1_2)">
<path d="M203.414 280.802C203.414 280.802 187.762 276.733 177.466 280.526C167.17 284.319 138.45 423.045 138.45 423.045C138.45 423.045 107.562 421.419 98.891 404.621C98.891 404.621 144.952 292.99 154.706 274.566C164.46 256.141 180.574 259.188 180.574 259.188L203.414 280.802Z" fill="#C6FF00"/>
</g>
<mask id="mask2_1_2" style="mask-type:luminance" maskUnits="userSpaceOnUse" x="98" y="258" width="106" height="166">
<path d="M203.414 280.802C203.414 280.802 187.762 276.733 177.466 280.526C167.17 284.319 138.45 423.045 138.45 423.045C138.45 423.045 107.562 421.419 98.891 404.621C98.891 404.621 144.952 292.99 154.706 274.566C164.46 256.141 180.574 259.188 180.574 259.188L203.414 280.802Z" fill="white"/>
</mask>
<g mask="url(#mask2_1_2)">
<path opacity="0.5" d="M203.414 280.802C203.414 280.802 187.762 276.733 177.466 280.526C167.17 284.319 138.45 423.045 138.45 423.045C138.45 423.045 107.562 421.419 98.891 404.621C98.891 404.621 144.952 292.99 154.706 274.566C164.46 256.141 180.574 259.188 180.574 259.188L203.414 280.802Z" fill="white"/>
</g>
<path d="M203.414 280.802C203.414 280.802 187.762 276.733 177.466 280.526C167.17 284.319 138.45 423.045 138.45 423.045C138.45 423.045 107.562 421.419 98.891 404.621C98.891 404.621 144.952 292.99 154.706 274.566C164.46 256.141 180.574 259.188 180.574 259.188L203.414 280.802Z" stroke="#263238" stroke-width="1.1483" stroke-miterlimit="10" stroke-linecap="round" stroke-linejoin="round"/>
<path d="M256.944 203.758C256.944 203.758 252.609 218.931 231.656 229.047C210.702 239.162 202.032 245.304 196.252 250C190.472 254.696 186.498 261.922 172.77 253.613C159.042 245.304 161.209 216.041 165.906 201.23C170.603 186.418 182.524 169.8 209.258 170.522C235.992 171.244 259.113 188.224 260.196 195.088C261.28 201.951 256.944 203.758 256.944 203.758Z" fill="#263238" stroke="#263238" stroke-width="1.1483" stroke-miterlimit="10" stroke-linecap="round" stroke-linejoin="round"/>
<path d="M188.813 196.914C188.813 199.724 186.318 202.003 183.24 202.003C180.162 202.003 177.667 199.725 177.667 196.914C177.667 194.103 180.162 191.826 183.24 191.826C186.317 191.825 188.813 194.104 188.813 196.914Z" fill="white"/>
<path d="M183.427 211.653C183.427 211.653 186.783 201.422 179.044 198.689C171.305 195.955 170.856 202.34 150.04 211.43C129.224 220.52 115.065 223.9 111.149 234.827C107.233 245.754 115.147 251.534 115.147 251.534C115.147 251.534 99.46 258.911 96.471 270.317C93.482 281.723 102.779 293.708 124.444 298.712C146.109 303.716 161.751 294.064 166.639 285.891C171.527 277.719 172.921 266.896 172.921 266.896C172.921 266.896 178.421 272.413 185.137 258.006C191.852 243.6 183.427 211.653 183.427 211.653Z" fill="#263238" stroke="#263238" stroke-width="1.1483" stroke-miterlimit="10" stroke-linecap="round" stroke-linejoin="round"/>
<g opacity="0.25">
<path d="M189.388 250.361C192.639 236.633 184.33 201.229 184.33 201.229" stroke="white" stroke-width="1.1483" stroke-miterlimit="10" stroke-linecap="round" stroke-linejoin="round"/>
<path d="M154.405 294.564C139.768 297.766 129.412 280.33 139.574 269.024C143.16 265.034 148.834 263.036 154.129 263.897C157.153 264.389 160.252 265.998 161.396 268.84C162.194 270.822 161.913 273.099 161.155 275.097C158.82 281.255 143.259 289.314 143.259 277.603C143.259 272.272 151.196 267.071 152.951 270.818C154.707 274.566 153.436 277.118 150.528 277.118" stroke="white" stroke-width="1.1483" stroke-miterlimit="10" stroke-linecap="round" stroke-linejoin="round"/>
<path d="M157.313 238.348C153.436 238.348 151.498 248.04 158.282 249.01C165.067 249.979 175.841 245.845 167.974 235.925C164.048 230.974 147.135 228.656 142.289 237.864C137.443 247.072 143.258 258.702 159.251 261.126C170.103 262.77 184.673 259.538 185.419 246.103C185.904 237.38 185.904 209.272 185.904 209.272" stroke="white" stroke-width="1.1483" stroke-miterlimit="10" stroke-linecap="round" stroke-linejoin="round"/>
<path d="M135.505 230.595C135.505 230.595 118.544 240.772 123.874 250.949C129.205 261.126 152.466 259.672 152.466 259.672" stroke="white" stroke-width="1.1483" stroke-miterlimit="10" stroke-linecap="round" stroke-linejoin="round"/>
<path d="M127.751 255.31C127.751 255.31 108.851 257.733 111.759 276.149" stroke="white" stroke-width="1.1483" stroke-miterlimit="10" stroke-linecap="round" stroke-linejoin="round"/>
</g>
</g>
<path d="M62.736 397.121H427.823" stroke="#263238" stroke-width="1.1483" stroke-miterlimit="10" stroke-linecap="round" stroke-linejoin="round"/>
</svg>
